# File created by Blade
# Date/Time:  Mon Nov 15 14:44:42 2010
#---------------------------------------------------------
:version 1.10
:name HOM
:units
  mass 1.0
  length 1.000000
  angle deg
:documentation
     Acclaim Skeleton File
:root
   axis xyz
   order TX TY TZ RX RY RZ
   position 0.000000 0.000000 0.000000
   orientation 0 0 0
:bonedata
   begin
      id 1
      name LeftUpLeg_dum
      direction 1.000000 0.000000 0.000000
      length 4.719518
      axis 0.0 0.0 0.0 xyz
   end
   begin
      id 2
      name RightUpLeg_dum
      direction -1.000000 0.000000 0.000000
      length 4.719518
      axis 0.0 0.0 0.0 xyz
   end
   begin
      id 3
      name Spine_dum
      direction 0.000000 1.000000 0.000000
      length 0.039370
      axis 0.0 0.0 0.0 xyz
   end
   begin
      id 4
      name LeftUpLeg
      direction 0.000000 -1.000000 0.000000
      length 19.141694
      axis 0.0 0.0 0.0 xyz
      dof rx ry rz
   end
   begin
      id 5
      name LeftLeg
      direction 0.000000 -1.000000 0.000000
      length 19.555040
      axis 0.0 0.0 0.0 xyz
      dof rx ry rz
   end
   begin
      id 6
      name LeftFoot
      direction 0.000000 -0.258819 0.965926
      length 6.929396
      axis 15.0 0.0 0.0 xyz
      dof rx ry rz
   end
   begin
      id 7
      name LeftToeBase
      direction 0.000000 0.000000 1.000000
      length 2.952750
      axis 0.0 0.0 0.0 xyz
      dof rx ry rz
   end
   begin
      id 8
      name RightUpLeg
      direction 0.000000 -1.000000 0.000000
      length 19.141694
      axis 0.0 0.0 0.0 xyz
      dof rx ry rz
   end
   begin
      id 9
      name RightLeg
      direction 0.000000 -1.000000 0.000000
      length 19.555040
      axis 0.0 0.0 0.0 xyz
      dof rx ry rz
   end
   begin
      id 10
      name RightFoot
      direction 0.000000 -0.258819 0.965926
      length 6.929396
      axis 15.0 0.0 0.0 xyz
      dof rx ry rz
   end
   begin
      id 11
      name RightToeBase
      direction 0.000000 0.000000 1.000000
      length 2.952750
      axis 0.0 0.0 0.0 xyz
      dof rx ry rz
   end
   begin
      id 12
      name Spine
      direction 0.000000 1.000000 0.000000
      length 11.965764
      axis 0.0 0.0 0.0 xyz
      dof rx ry rz
   end
   begin
      id 13
      name Spine1
      direction 0.000000 1.000000 0.000000
      length 0.000000
      axis 0.0 0.0 0.0 xyz
      dof rx ry rz
   end
   begin
      id 14
      name Spine1_dum1
      direction 0.000000 1.000000 0.000000
      length 9.788721
      axis 0.0 0.0 0.0 xyz
   end
   begin
      id 15
      name Spine1_dum2
      direction 0.000000 1.000000 0.000000
      length 9.788721
      axis 0.0 0.0 0.0 xyz
   end
   begin
      id 16
      name Spine1_dum3
      direction 0.000000 1.000000 0.000000
      length 9.788721
      axis 0.0 0.0 0.0 xyz
   end
   begin
      id 17
      name Neck
      direction 0.000000 1.000000 0.000000
      length 7.029632
      axis 0.0 0.0 0.0 xyz
      dof rx ry rz
   end
   begin
      id 18
      name Head
      direction 0.000000 1.000000 0.000000
      length 4.527550
      axis 0.0 0.0 0.0 xyz
      dof rx ry rz
   end
   begin
      id 19
      name LeftShoulder
      direction 1.000000 -0.000004 0.000000
      length 9.320257
      axis 0.0 0.0 -90.0 xyz
      dof rx ry rz
   end
   begin
      id 20
      name LeftArm
      direction 1.000000 -0.000004 0.000000
      length 12.801352
      axis 0.0 0.0 -90.0 xyz
      dof rx ry rz
   end
   begin
      id 21
      name LeftForeArm
      direction 1.000000 -0.000004 0.000000
      length 11.278127
      axis 0.0 0.0 -90.0 xyz
      dof rx ry rz
   end
   begin
      id 22
      name LeftHand
      direction 0.000000 0.000000 0.000000
      length 0.000000
      axis 0.0 0.0 -90.0 xyz
      dof rx ry rz
   end
   begin
      id 23
      name LeftHand_dum1
      direction 0.000000 0.000000 0.000000
      length 0.000000
      axis 0.0 0.0 -90.0 xyz
   end
   begin
      id 24
      name LeftHand_dum2
      direction 1.000000 -0.000004 0.000000
      length 3.937000
      axis 0.0 0.0 -90.0 xyz
   end
   begin
      id 25
      name LeftHandThumb
      direction 0.000000 0.000000 1.000000
      length 3.937000
      axis 0.0 0.0 -90.0 xyz
      dof rx ry rz
   end
   begin
      id 26
      name RightShoulder
      direction -1.000000 -0.000004 0.000000
      length 9.320257
      axis 0.0 0.0 90.0 xyz
      dof rx ry rz
   end
   begin
      id 27
      name RightArm
      direction -1.000000 -0.000004 0.000000
      length 12.801352
      axis 0.0 0.0 90.0 xyz
      dof rx ry rz
   end
   begin
      id 28
      name RightForeArm
      direction -1.000000 -0.000004 0.000000
      length 11.278127
      axis 0.0 0.0 90.0 xyz
      dof rx ry rz
   end
   begin
      id 29
      name RightHand
      direction 0.000000 0.000000 0.000000
      length 0.000000
      axis 0.0 0.0 90.0 xyz
      dof rx ry rz
   end
   begin
      id 30
      name RightHand_dum1
      direction 0.000000 0.000000 0.000000
      length 0.000000
      axis 0.0 0.0 90.0 xyz
   end
   begin
      id 31
      name RightHand_dum2
      direction -1.000000 -0.000004 0.000000
      length 5.393690
      axis 0.0 0.0 90.0 xyz
   end
   begin
      id 32
      name RightHandThumb
      direction 0.000000 0.000000 1.000000
      length 3.937000
      axis 0.0 0.0 90.0 xyz
      dof rx ry rz
   end
:hierarchy
   begin
      root LeftUpLeg_dum RightUpLeg_dum Spine_dum
      LeftUpLeg_dum LeftUpLeg
      RightUpLeg_dum RightUpLeg
      Spine_dum Spine
      LeftUpLeg LeftLeg
      LeftLeg LeftFoot
      LeftFoot LeftToeBase
      RightUpLeg RightLeg
      RightLeg RightFoot
      RightFoot RightToeBase
      Spine Spine1
      Spine1 Spine1_dum1 Spine1_dum2 Spine1_dum3
      Spine1_dum1 Neck
      Spine1_dum2 LeftShoulder
      Spine1_dum3 RightShoulder
      Neck Head
      LeftShoulder LeftArm
      LeftArm LeftForeArm
      LeftForeArm LeftHand
      LeftHand LeftHand_dum1 LeftHand_dum2
      LeftHand_dum1 LeftHandThumb
      RightShoulder RightArm
      RightArm RightForeArm
      RightForeArm RightHand
      RightHand RightHand_dum1 RightHand_dum2
      RightHand_dum1 RightHandThumb
   end

# File created by Blade
# Date/Time:  Mon Nov 15 14:56:25 2010
# Frame Rate: 200.000 fps
#------------------------------------------------------
:FULLY-SPECIFIED
:DEGREES
576
root  5.340431 38.123100 46.750025 -10.833515 -14.089941 -2.149925
LeftUpLeg  -15.286757 10.089724 2.087218
LeftLeg  5.492888 -0.000000 0.000000
LeftFoot  8.058421 9.831168 7.405618
LeftToeBase  -24.285223 0.000000 -0.000000
RightUpLeg  33.637188 -0.045199 0.842632
RightLeg  14.972562 -0.000000 0.000000
RightFoot  0.141658 -6.296571 -12.240310
RightToeBase  -73.363956 0.000000 -0.000000
Spine  10.185765 2.540866 3.348104
Spine1  1.641797 5.748610 -5.182796
Neck  16.007909 -1.011107 -3.256843
Head  -22.406606 -4.300255 2.110323
LeftShoulder  -17.655383 17.370707 -3.382576
LeftArm  0.566272 3.170002 -79.630442
LeftForeArm  12.003157 -0.000000 0.000000
LeftHand  -18.931330 11.660002 -17.431943
LeftHandThumb  0.000000 -0.000000 0.000000
RightShoulder  -5.571157 -9.706069 -2.372285
RightArm  28.177144 -13.962673 71.243615
RightForeArm  55.494238 -0.000000 -0.000000
RightHand  1.142015 -0.863071 9.595484
RightHandThumb  0.000000 -0.000000 0.000000
577
root  5.382673 38.093183 47.220427 -11.075510 -14.207319 -1.802719
LeftUpLeg  -15.135527 9.723123 1.847867
LeftLeg  6.116687 -0.000000 0.000000
LeftFoot  10.486952 9.925234 8.062486
LeftToeBase  -24.375232 0.000000 -0.000000
RightUpLeg  33.653374 -0.153982 0.013664
RightLeg  16.048563 -0.000000 0.000000
RightFoot  1.035956 -5.710557 -12.364703
RightToeBase  -76.207933 0.000000 -0.000000
Spine  10.181454 2.638707 3.156845
Spine1  1.639145 5.760041 -5.316800
Neck  16.051273 -1.101251 -3.189282
Head  -22.375867 -4.212878 1.998823
LeftShoulder  -17.768737 17.370722 -3.459598
LeftArm  0.291988 3.028865 -79.594283
LeftForeArm  11.986561 -0.000000 0.000000
LeftHand  -19.320333 12.011904 -17.817289
LeftHandThumb  0.000000 -0.000000 0.000000
RightShoulder  -5.701908 -9.846449 -2.206238
RightArm  27.997349 -13.835098 71.314655
RightForeArm  55.659851 -0.000000 -0.000000
RightHand  1.260094 -0.822415 9.413260
RightHandThumb  0.000000 -0.000000 0.000000
578
root  5.427900 38.076919 47.686274 -11.326019 -14.238110 -1.279222
LeftUpLeg  -15.057248 8.995736 1.480645
LeftLeg  7.048747 -0.000000 0.000000
LeftFoot  12.105177 10.440145 7.865242
LeftToeBase  -24.796441 0.000000 -0.000000
RightUpLeg  33.478801 -0.244126 -0.969315
RightLeg  17.285803 -0.000000 0.000000
RightFoot  2.214453 -5.128828 -12.337684
RightToeBase  -79.267922 0.000000 -0.000000
Spine  10.122621 2.723938 2.828164
Spine1  1.731194 5.717301 -5.481827
Neck  15.980081 -1.059555 -3.173702
Head  -22.253705 -4.207090 2.031286
LeftShoulder  -17.921005 17.327868 -3.649128
LeftArm  0.170126 2.969494 -79.452356
LeftForeArm  11.900791 -0.000000 0.000000
LeftHand  -19.674941 12.313513 -18.141699
LeftHandThumb  0.000000 -0.000000 0.000000
RightShoulder  -5.881786 -9.947463 -1.941396
RightArm  27.892657 -13.758783 71.282475
RightForeArm  55.688851 -0.000000 -0.000000
RightHand  1.452798 -0.762956 9.220426
RightHandThumb  0.000000 -0.000000 0.000000
579
root  5.478785 38.070002 48.148573 -11.576841 -14.266681 -0.755523
LeftUpLeg  -14.974409 8.268858 1.113127
LeftLeg  7.980807 -0.000000 0.000000
LeftFoot  13.724353 10.960333 7.682550
LeftToeBase  -25.217650 0.000000 -0.000000
RightUpLeg  33.305798 -0.337251 -1.952023
RightLeg  18.523044 -0.000000 0.000000
RightFoot  3.392212 -4.547775 -12.298692
RightToeBase  -82.327912 0.000000 -0.000000
Spine  10.063296 2.808829 2.499372
Spine1  1.823359 5.674826 -5.646911
Neck  15.908900 -1.017841 -3.158173
Head  -22.131540 -4.201370 2.063760
LeftShoulder  -18.073089 17.284533 -3.838494
LeftArm  0.048124 2.910424 -79.310311
LeftForeArm  11.815020 -0.000000 0.000000
LeftHand  -20.031706 12.613148 -18.468393
LeftHandThumb  0.000000 -0.000000 0.000000
RightShoulder  -6.062191 -10.047656 -1.676151
RightArm  27.787955 -13.682525 71.250162
RightForeArm  55.717850 -0.000000 -0.000000
RightHand  1.645298 -0.702849 9.027797
RightHandThumb  0.000000 -0.000000 0.000000
